/* XPM */
/*
 *	Copyright (C) 1995 Noriyuki TAKAHASHI
 *
 *	battery.xpm: battery pixmap for xbatt
 *		Noriyuki TAKAHASHI (nor@aecl.ntt.jp), 95/04/01.
 */
static char * batt_xpm[] = {
"39 39 21 1",
" 	s None c None",
".	c black",
"#	c black s scale g black",
"X	c darkslategray g black m white",
"o	c lightgrey g gray m black",
"+	c black s plug",
"g	c darkslategray s plug g black m white",
"=	c lightgrey s plug g gray m black",
"O	c yellow s plug g white m white",
"-	c black s spark",
"s	c yellow s spark g white m white",
"1	c white s gage1",	/* gray 60 in gray */
"2	c white s gage2",
"3	c white s gage3",
"4	c white s gage4",
"5	c white s gage5",
"6	c white s gage6",
"7	c white s gage7",
"8	c white s gage8",
"9	c white s gage9",
"@	c white s gage10",
"                     .......           ",
"              ........XXXXX........    ",
"       -   ....XXXXXXXoooooXXXXXXX.... ",
"      -s- ..XXXXoooooXooooXXoooooXXXX..",
"     -ss- .XXooooooooXooXXXXoooooXXXXX.",
"    -ss-  .XXXXXooooooXXXXXooooXXXXXXX.",
"   -sss-  .XX@@XXXXXXXoooooXXXXXXX@@XX.",
"  -sss-   .XX@@@@@@@@XXXXXXX@@@@@@@@XX.",
" -ssss-   .XX@@@@@@@@@@@@@@@@@@@@@@@XX.",
"  -ss-    .XX9999999999999999999###9XX.",
"   -ss-   .XX99999999999999999999999XX.",
"  -ssss-  .XX99999999999999999999999XX.",
"  -sss-   .XX8888888888888888888###8XX.",
" -sss-    .XX88888888888888888888888XX.",
" -ss-     .XX88888888888888888888888XX.",
"-ss-      .XX7777777777777777777###7XX.",
"-s-       .XX77777777777777777777777XX.",
" -        .XX77777777777777777777777XX.",
"          .XX6666666666666666666###6XX.",
" +++  +++ .XX66666666666666666666666XX.",
" +O+  +O+ .XX66666666666666666666666XX.",
" +O+  +O+ .XX55555555555555555#####5XX.",
" +O+  +O+ .XX55555555555555555555555XX.",
"++O++++O++.XX55555555555555555555555XX.",
"+========+.XX4444444444444444444###4XX.",
"+========+.XX44444444444444444444444XX.",
"+==gggg==+.XX44444444444444444444444XX.",
"+========+.XX3333333333333333333###3XX.",
"+==gggg==+.XX33333333333333333333333XX.",
"+========+.XX33333333333333333333333XX.",
"++======++.XX2222222222222222222###2XX.",
" ++====++ .XX22222222222222222222222XX.",
"  +gggg+  .XX22222222222222222222222XX.",
"  ++==+   .XX1111111111111111111###1XX.",
"   +==+   ..XXX1111111111111111111XXX..",
"  ++==+    ..XXXXXXX111111111XXXXXXX.. ",
" ++===+     ...XXXXXXXXXXXXXXXXXXX...  ",
" +===++       ......XXXXXXXXX......    ",
" +++++             ...........         "};
